<svg xmlns="http://www.w3.org/2000/svg" width="1600" height="900" viewBox="0 0 1600 900">
<defs>
<linearGradient id="g" x1="0" y1="0" x2="1" y2="1">
<stop offset="0%" stop-color="#07110b"/>
<stop offset="45%" stop-color="#0d1a12"/>
<stop offset="100%" stop-color="#72bf44"/>
</linearGradient>
<radialGradient id="r" cx="70%" cy="42%" r="52%">
<stop offset="0%" stop-color="#8ee35b" stop-opacity=".95"/>
<stop offset="45%" stop-color="#72bf44" stop-opacity=".25"/>
<stop offset="100%" stop-color="#07110b" stop-opacity="0"/>
</radialGradient>
<filter id="blur"><feGaussianBlur stdDeviation="20"/></filter>
</defs>
<rect width="1600" height="900" fill="url(#g)"/>
<circle cx="1080" cy="360" r="360" fill="url(#r)"/>
<g opacity=".28" fill="none" stroke="#dff7d5" stroke-width="1">
<path d="M-100 650 C 300 500, 500 760, 900 610 S 1500 400, 1720 540"/>
<path d="M-60 690 C 320 540, 540 790, 940 650 S 1520 450, 1740 590"/>
<path d="M-20 730 C 340 580, 580 820, 980 690 S 1540 510, 1760 640"/>
</g>
<g opacity=".2">
<circle cx="1220" cy="240" r="110" fill="#ffffff" filter="url(#blur)"/>
<circle cx="1020" cy="640" r="150" fill="#72bf44" filter="url(#blur)"/>
</g>
<g transform="translate(910 250)" opacity=".92">
<rect x="0" y="0" width="520" height="330" rx="32" fill="#ffffff" opacity=".12" stroke="#ffffff" stroke-opacity=".22"/>
<rect x="45" y="55" width="210" height="18" rx="9" fill="#dff7d5"/>
<rect x="45" y="95" width="360" height="12" rx="6" fill="#dff7d5" opacity=".65"/>
<rect x="45" y="125" width="300" height="12" rx="6" fill="#dff7d5" opacity=".45"/>
<g transform="translate(45 180)">
<circle cx="35" cy="35" r="35" fill="#72bf44"/>
<rect x="95" y="9" width="320" height="16" rx="8" fill="#dff7d5"/>
<rect x="95" y="42" width="240" height="12" rx="6" fill="#dff7d5" opacity=".55"/>
</g>
</g>
</svg>